<?xml version="1.0" encoding="UTF-8"?>
<!DOCTYPE svg PUBLIC "-//W3C//DTD SVG 1.1//EN" "http://www.w3.org/Graphics/SVG/1.1/DTD/svg11.dtd">
<!-- Creator: CorelDRAW 2020 (64 Bit) -->
<svg xmlns="http://www.w3.org/2000/svg" xml:space="preserve" width="87.3889mm" height="89.5561mm" version="1.1" style="shape-rendering:geometricPrecision; text-rendering:geometricPrecision; image-rendering:optimizeQuality; fill-rule:evenodd; clip-rule:evenodd"
viewBox="0 0 5970.02 6118.07"
 xmlns:xlink="http://www.w3.org/1999/xlink"
 xmlns:xodm="http://www.corel.com/coreldraw/odm/2003">
 <defs>
  <style type="text/css">
   <![CDATA[
    .fil0 {fill:#B3B3B3}
    .fil1 {fill:#ED3338}
    .fil3 {fill:#B3B3B3;fill-rule:nonzero}
    .fil2 {fill:#ED3338;fill-rule:nonzero}
   ]]>
  </style>
 </defs>
 <g id="Camada_x0020_1">
  <metadata id="CorelCorpID_0Corel-Layer"/>
  <path class="fil0" d="M2651.41 2904.99c1580.44,-545.44 3002.81,-578.52 3176.96,-73.89 167.58,485.57 -881.81,1292.08 -2369.47,1838.24l37.73 -97.36c1139.41,-481.46 1900.81,-1114.27 1764.16,-1510.24 -156.93,-454.74 -1438.69,-424.9 -2862.88,66.6 -1305.75,450.66 -2277.71,1132.86 -2309.43,1593.69 -33.61,-510.97 1067.33,-1300.9 2562.92,-1817.04z"/>
  <path class="fil1" d="M1976.87 4245.99l715.49 -2432.18c414.54,-1409.18 727.89,-1597.39 3216.66,-1813.8 -2176.87,580.49 -2450.35,802.75 -2947.6,1958.23l-984.55 2287.76z"/>
  <path class="fil1" d="M5092.11 1352.24c-1476.86,695.36 -2215.3,1043.04 -2215.3,1043.04 420.96,-942.94 1254.39,-818.09 2215.3,-1043.04z"/>
  <path class="fil2" d="M566.79 5175.28l-89.68 0 -163.22 405.36 -313.89 0 299.54 -740.76c20.33,-50.23 44.23,-94.16 71.74,-131.83 27.5,-37.68 60.68,-68.78 99.54,-93.28 38.86,-24.51 84.3,-43.06 136.32,-55.61 52.01,-12.56 112.7,-18.83 182.05,-18.83l823.28 0 -95.06 236.76 -685.16 0c-75.35,0 -132.15,14.33 -170.41,43.04 -38.25,28.69 -67.56,68.16 -87.88,118.37l878.87 0 -96.85 236.77 -789.2 0zm1330.87 0l-89.68 0c-21.52,54.99 -24.82,96.86 -9.87,125.56 14.94,28.69 60.08,43.05 135.42,43.05l685.16 0 -95.06 236.75 -823.27 0c-69.35,0 -125.25,-6.29 -167.69,-18.83 -42.45,-12.55 -72.95,-31.1 -91.48,-55.62 -18.55,-24.5 -26.6,-55.6 -24.22,-93.27 2.39,-37.64 13.75,-81.59 34.08,-131.81l179.38 -441.23c20.32,-50.23 44.23,-94.16 71.74,-131.83 27.5,-37.68 60.68,-68.78 99.54,-93.28 38.86,-24.51 84.29,-43.06 136.32,-55.61 52.01,-12.56 112.69,-18.83 182.05,-18.83l823.27 0 -95.06 236.76 -685.16 0c-75.34,0 -132.15,14.33 -170.41,43.04 -38.25,28.69 -67.55,68.16 -87.88,118.37l878.88 0 -96.86 236.77 -789.19 0zm1077.96 405.36l-312.09 0 419.72 -1040.3 312.09 0 -419.72 1040.3zm200.9 -154.26l-62.77 154.26 823.26 0c69.35,0 130.05,-6.29 182.05,-18.83 52.01,-12.55 97.47,-31.1 136.33,-55.62 38.85,-24.5 72.04,-55.6 99.54,-93.27 27.49,-37.64 51.41,-81.59 71.74,-131.81l299.54 -740.77 -315.68 0 -256.49 638.53c-21.52,53.81 -51.43,94.75 -89.68,122.86 -38.27,28.09 -95.07,42.16 -170.4,42.16l-685.16 0 -32.29 82.49zm2581.02 -145.27c-37.07,95.65 -92.66,169.79 -166.8,222.39 -70.56,51.42 -176.37,77.14 -317.47,77.14l-459.18 0c-121.97,0 -204.47,-23.02 -247.52,-69.05 -43.03,-46.04 -43.64,-122.87 -1.79,-230.48l179.37 -441.23c40.66,-100.45 99.84,-174.89 177.57,-223.31 77.72,-48.43 181.75,-73.84 312.09,-76.23l459.16 0c141.1,0 226.61,25.71 256.49,77.14 31.09,52.61 26.9,126.74 -12.55,222.41l-179.37 441.23zm-272.63 -100.45l96.86 -238.56c21.51,-57.4 26.29,-99.22 14.33,-125.54 -11.94,-26.29 -59.77,-39.46 -143.49,-39.46l-175.76 0c-75.33,0 -131.83,14.05 -169.5,42.15 -37.66,28.09 -67.26,69.05 -88.78,122.85l-95.05 236.77c-22.73,53.81 -26.62,94.75 -11.67,122.86 14.94,28.09 60.09,42.16 135.43,42.16l175.76 0c82.53,0 140.52,-13.17 173.99,-39.47 35.87,-28.69 65.16,-69.97 87.88,-123.77zm439.43 -1027.75l-389.21 261.87 -195.5 0 288.76 -261.87 295.95 0z"/>
  <path class="fil3" d="M1884.25 6044.25c-11.05,17.48 -27.83,34.27 -50.37,50.36 -22.53,15.64 -48.31,23.45 -77.27,23.45l-382.25 0 36.56 -91.08 316.7 0c9.67,0 14.96,-3.22 15.88,-9.67 0.92,-6.9 0,-10.8 -2.76,-11.73l-230.46 -100.03c-28.97,-11.51 -36.11,-34.96 -21.37,-70.39 3.2,-8.28 6.09,-15.17 8.61,-20.67 2.53,-5.53 4.95,-9.91 7.25,-13.13 3.67,-3.68 7.47,-8.05 11.39,-13.12 3.89,-5.04 7.69,-10.57 11.38,-16.54 8.27,-12.9 26.91,-25.07 55.88,-36.59 28.52,-11.48 60.03,-17.22 94.52,-17.22l338.09 0 -37.94 93.82 -338.09 0c-7.36,0 -13.1,4.15 -17.24,12.41 -1.38,5.53 -1.38,8.29 0,8.29l254.59 113.16c16.57,7.34 23.92,21.62 22.09,42.77 -1.38,21.16 -6.46,39.79 -15.19,55.9zm289.53 -82.13l-34.5 0c-8.27,21.17 -9.54,37.27 -3.79,48.3 5.75,11.03 23.12,16.57 52.1,16.57l263.57 0 -36.57 91.08 -316.69 0c-26.68,0 -48.19,-2.42 -64.52,-7.25 -16.32,-4.84 -28.06,-11.96 -35.19,-21.38 -7.13,-9.44 -10.23,-21.41 -9.32,-35.89 0.94,-14.49 5.29,-31.4 13.12,-50.7l69 -169.75c7.82,-19.31 17.03,-36.21 27.6,-50.71 10.58,-14.47 23.35,-26.44 38.3,-35.88 14.93,-9.41 32.42,-16.55 52.43,-21.38 20.02,-4.82 43.35,-7.23 70.02,-7.23l316.71 0 -36.58 91.06 -263.56 0c-28.98,0 -50.84,5.53 -65.56,16.55 -14.73,11.05 -25.99,26.23 -33.8,45.55l338.08 0 -37.25 91.07 -303.59 0zm890.53 -66.23l-120.06 0 -53.13 131.1 -142.82 0c-28.98,0 -46.24,-5.4 -51.75,-16.22 -5.53,-10.8 -4.15,-26.55 4.13,-47.27l36.57 -91.06c8.28,-20.7 19.67,-36.45 34.14,-47.27 14.5,-10.81 36.24,-16.21 65.22,-16.21l262.86 0 36.59 -91.06 -316.02 0c-26.68,0 -50.03,2.4 -70.03,7.23 -20.02,4.83 -37.49,11.97 -52.45,21.38 -14.94,9.43 -27.71,21.41 -38.29,35.88 -10.57,14.5 -19.77,31.4 -27.6,50.71l-68.99 169.75c-7.82,19.31 -12.18,36.21 -13.12,50.7 -0.92,14.48 2.19,26.45 9.32,35.89 7.13,9.41 18.86,16.54 35.18,21.38 16.35,4.83 37.85,7.25 64.52,7.25l316.01 0 89.7 -222.18zm516.55 106.95l115.23 -284.95 -120.76 0 -98.67 245.61c-9.2,21.62 -20.46,37.73 -33.8,48.29 -12.87,10.13 -35.43,15.19 -67.61,15.19l-67.63 0c-28.97,0 -46.35,-5.4 -52.09,-16.22 -5.75,-10.8 -4.25,-26.55 4.49,-47.27l98.67 -245.61 -121.43 0 -115.24 284.95c-14.25,36.33 -12.99,64.61 3.81,84.88 16.79,20.24 47.49,30.35 92.1,30.35l176.64 0c54.28,0 95,-9.89 122.12,-29.67 28.52,-20.24 49.92,-48.76 64.18,-85.55zm268.15 -113.85l32.44 -80.03 142.14 0c32.2,0 50.59,5.06 55.18,15.17 4.61,10.58 6,18.86 4.15,24.85 -2.77,5.96 -10.8,14.25 -24.15,24.84 -12.88,10.13 -35.41,15.17 -67.62,15.17l-142.14 0zm173.2 91.09l17.93 0c34.49,0 65.56,-9.89 93.14,-29.67 27.61,-19.79 48.77,-48.3 63.49,-85.56l13.11 -31.75c15.17,-36.79 16.79,-65.31 4.82,-85.54 -11.49,-19.78 -44.38,-29.66 -98.65,-29.66l-318.09 0 -161.45 400.17 120.05 0 55.9 -137.99 74.53 0 77.96 137.99 135.22 0 -77.95 -137.99zm678.68 22.77c-14.25,36.79 -35.64,65.31 -64.16,85.55 -27.13,19.78 -67.84,29.67 -122.12,29.67l-176.63 0c-46.93,0 -78.66,-8.85 -95.22,-26.55 -16.57,-17.72 -16.79,-47.26 -0.68,-88.67l69 -169.75c15.64,-38.63 38.39,-67.25 68.29,-85.89 29.91,-18.63 69.93,-28.39 120.05,-29.31l176.65 0c54.27,0 87.16,9.88 98.65,29.66 11.97,20.24 10.35,48.76 -4.82,85.54l-69.01 169.75zm-104.87 -38.65l37.27 -91.75c8.26,-22.08 10.1,-38.18 5.51,-48.31 -4.59,-10.1 -22.99,-15.17 -55.19,-15.17l-67.63 0c-28.98,0 -50.72,5.4 -65.21,16.21 -14.48,10.82 -25.86,26.57 -34.14,47.27l-36.57 91.06c-8.73,20.71 -10.23,36.47 -4.49,47.27 5.75,10.81 23.12,16.22 52.1,16.22l67.62 0c31.73,0 54.05,-5.06 66.92,-15.19 13.8,-11.02 25.06,-26.88 33.8,-47.6zm670.42 80.06c-11.05,17.48 -27.84,34.27 -50.37,50.36 -22.54,15.64 -48.3,23.45 -77.27,23.45l-382.26 0 36.57 -91.08 316.7 0c9.65,0 14.95,-3.22 15.87,-9.67 0.92,-6.9 0,-10.8 -2.76,-11.73l-230.45 -100.03c-28.97,-11.51 -36.13,-34.96 -21.38,-70.39 3.2,-8.28 6.09,-15.17 8.61,-20.67 2.53,-5.53 4.96,-9.91 7.25,-13.13 3.68,-3.68 7.47,-8.05 11.39,-13.12 3.9,-5.04 7.7,-10.57 11.39,-16.54 8.27,-12.9 26.91,-25.07 55.88,-36.59 28.52,-11.48 60.04,-17.22 94.53,-17.22l338.09 0 -37.96 93.82 -338.09 0c-7.35,0 -13.1,4.15 -17.24,12.41 -1.38,5.53 -1.38,8.29 0,8.29l254.59 113.16c16.57,7.34 23.92,21.62 22.09,42.77 -1.38,21.16 -6.45,39.79 -15.18,55.9z"/>
 </g>
</svg>
